<svg width="473" height="474" viewBox="0 0 473 474" fill="none" xmlns="http://www.w3.org/2000/svg">
<g clip-path="url(#clip0_469_5206)">
<path d="M1.10001 0L0 472.07L471.86 473.17L472.96 1.1L1.10001 0ZM360 150.01C357 150.9 347.86 152.68 347.86 152.68L347.44 333.75L400 333.87L399.87 389.13L286.21 388.87L286.76 154.78L190.62 154.56L190.01 288.45C189.99 298.78 188.46 308.96 185.6 318.84C177.15 347.43 157.03 371.49 130.19 384.76C121.64 389.08 112.5 392.06 103.06 393.98C92.87 395.9 82.24 396.48 71.46 395.4L71.59 339.39C93.75 341.84 115.79 329.61 124.97 309.41C127.53 304.47 130.2 298.03 130.11 288.3C130.04 280.61 130.13 152.97 130.13 152.97C107.17 158.05 90.35 176.79 79.75 195.7L29.61 167.21C35.17 156.89 45.18 140.53 51.93 132.75C67.85 114.52 87.81 102.12 104.25 97.89C110.14 96.37 122.6 93.95 132.93 93.95C177.19 93.95 328.24 93.62 328.24 93.62C352.95 93.68 375.14 80.7 387.17 59.31L436.22 87.88C420.72 118.55 393.12 141.1 360 150.01Z" fill="#3AAA35"/>
</g>
<defs>
<clipPath id="clip0_469_5206">
<rect width="472.96" height="473.17" rx="128" fill="white"/>
</clipPath>
</defs>
</svg>
